<?xml version="1.0" encoding="UTF-8" ?>
<!DOCTYPE svg PUBLIC "-//W3C//DTD SVG 1.1//EN" "http://www.w3.org/Graphics/SVG/1.1/DTD/svg11.dtd">
<svg xmlns="http://www.w3.org/2000/svg" width="27px" height="27px" viewBox="0 0 48 48" version="1.1">
<g id="#013fadff">
<path fill="#ffffff" opacity="1.00" d=" M 5.52 13.48 C 10.43 4.92 21.78 -0.03 31.16 3.89 C 41.10 7.34 46.98 18.38 44.97 28.62 C 39.48 30.52 34.32 34.40 28.29 34.01 C 25.75 32.05 24.07 29.21 21.47 27.33 C 17.90 26.70 14.79 29.25 11.76 30.75 C 8.72 29.54 5.67 28.37 2.59 27.27 C 3.18 22.63 3.01 17.62 5.52 13.48 Z"/>
</g>
<g id="#000209ff">
<path fill="transparent" opacity="1.00" d=" M 2.59 27.27 C 5.67 28.37 8.72 29.54 11.76 30.75 C 14.79 29.25 17.90 26.70 21.47 27.33 C 24.07 29.21 25.75 32.05 28.29 34.01 C 34.32 34.40 39.48 30.52 44.97 28.62 C 44.70 28.90 44.16 29.47 43.89 29.75 C 38.96 35.25 31.01 34.85 24.75 37.86 C 22.40 38.56 19.62 40.83 17.35 38.78 C 12.82 35.21 8.15 31.81 3.64 28.22 C 3.38 27.98 2.85 27.51 2.59 27.27 M 17.47 29.26 C 11.10 31.87 18.37 41.60 22.74 36.81 C 26.79 33.61 21.80 26.75 17.47 29.26 Z"/>
</g>
<g id="#ffffffff">
<path fill="#ffffff" opacity="1.00" d=" M 3.64 28.22 C 8.15 31.81 12.82 35.21 17.35 38.78 C 19.62 40.83 22.40 38.56 24.75 37.86 C 31.01 34.85 38.96 35.25 43.89 29.75 C 42.84 36.31 37.62 41.31 31.68 43.76 C 20.30 49.09 5.23 40.65 3.64 28.22 Z"/>
<path fill="#ffffff" opacity="1.00" d=" M 17.47 29.26 C 21.80 26.75 26.79 33.61 22.74 36.81 C 18.37 41.60 11.10 31.87 17.47 29.26 Z"/>
</g>
</svg>

